<svg xmlns="http://www.w3.org/2000/svg" viewBox="0 0 900 400" width="900" height="400" role="img" aria-label="play-pin">
<rect x="0" y="0" width="900" height="400" rx="18" fill="#141412" fill-opacity="1.0"/>
<rect x="6" y="6" width="888" height="388" rx="14" fill="none" fill-opacity="1.0" stroke="#5f636b" stroke-width="1" stroke-opacity="0.28"/>
<circle cx="20" cy="20" r="3.2" fill="#5f636b" fill-opacity="0.5"/><line x1="18.4" y1="20" x2="21.6" y2="20" stroke="#0d0d0c" stroke-width="1"/>
<circle cx="880" cy="20" r="3.2" fill="#5f636b" fill-opacity="0.5"/><line x1="878.4" y1="20" x2="881.6" y2="20" stroke="#0d0d0c" stroke-width="1"/>
<circle cx="20" cy="380" r="3.2" fill="#5f636b" fill-opacity="0.5"/><line x1="18.4" y1="380" x2="21.6" y2="380" stroke="#0d0d0c" stroke-width="1"/>
<circle cx="880" cy="380" r="3.2" fill="#5f636b" fill-opacity="0.5"/><line x1="878.4" y1="380" x2="881.6" y2="380" stroke="#0d0d0c" stroke-width="1"/>
<text x="38" y="34" font-family="ui-monospace, SFMono-Regular, Menlo, monospace" font-size="12.5" fill="#efc03b" font-weight="700" text-anchor="start" letter-spacing="2.4" fill-opacity="1.0" xml:space="preserve">PIN — YOU MAKE THE OFFER</text>
<text x="862" y="34" font-family="ui-monospace, SFMono-Regular, Menlo, monospace" font-size="10.5" fill="#8a8a8a" font-weight="400" text-anchor="end" letter-spacing="1.6" fill-opacity="1.0" xml:space="preserve">YOUR BID GOES ON THE REAL BOOK</text>
<line x1="38" y1="46" x2="862" y2="46" stroke="#efc03b" stroke-width="1" stroke-opacity="0.22" stroke-linecap="square"/>
<rect x="33" y="57" width="834" height="306" rx="10" fill="#0d0d0c" fill-opacity="1.0"/>
<rect x="38" y="62" width="824" height="296" rx="6" fill="#191509" fill-opacity="1.0"/>
<rect x="38" y="62" width="824" height="296" rx="6" fill="none" fill-opacity="1.0" stroke="#efc03b" stroke-width="1" stroke-opacity="0.18"/>
<line x1="40" y1="65" x2="860" y2="65" stroke="#efc03b" stroke-width="1" stroke-opacity="0.035" stroke-linecap="square"/>
<line x1="40" y1="69" x2="860" y2="69" stroke="#efc03b" stroke-width="1" stroke-opacity="0.035" stroke-linecap="square"/>
<line x1="40" y1="73" x2="860" y2="73" stroke="#efc03b" stroke-width="1" stroke-opacity="0.035" stroke-linecap="square"/>
<line x1="40" y1="77" x2="860" y2="77" stroke="#efc03b" stroke-width="1" stroke-opacity="0.035" stroke-linecap="square"/>
<line x1="40" y1="81" x2="860" y2="81" stroke="#efc03b" stroke-width="1" stroke-opacity="0.035" stroke-linecap="square"/>
<line x1="40" y1="85" x2="860" y2="85" stroke="#efc03b" stroke-width="1" stroke-opacity="0.035" stroke-linecap="square"/>
<line x1="40" y1="89" x2="860" y2="89" stroke="#efc03b" stroke-width="1" stroke-opacity="0.035" stroke-linecap="square"/>
<line x1="40" y1="93" x2="860" y2="93" stroke="#efc03b" stroke-width="1" stroke-opacity="0.035" stroke-linecap="square"/>
<line x1="40" y1="97" x2="860" y2="97" stroke="#efc03b" stroke-width="1" stroke-opacity="0.035" stroke-linecap="square"/>
<line x1="40" y1="101" x2="860" y2="101" stroke="#efc03b" stroke-width="1" stroke-opacity="0.035" stroke-linecap="square"/>
<line x1="40" y1="105" x2="860" y2="105" stroke="#efc03b" stroke-width="1" stroke-opacity="0.035" stroke-linecap="square"/>
<line x1="40" y1="109" x2="860" y2="109" stroke="#efc03b" stroke-width="1" stroke-opacity="0.035" stroke-linecap="square"/>
<line x1="40" y1="113" x2="860" y2="113" stroke="#efc03b" stroke-width="1" stroke-opacity="0.035" stroke-linecap="square"/>
<line x1="40" y1="117" x2="860" y2="117" stroke="#efc03b" stroke-width="1" stroke-opacity="0.035" stroke-linecap="square"/>
<line x1="40" y1="121" x2="860" y2="121" stroke="#efc03b" stroke-width="1" stroke-opacity="0.035" stroke-linecap="square"/>
<line x1="40" y1="125" x2="860" y2="125" stroke="#efc03b" stroke-width="1" stroke-opacity="0.035" stroke-linecap="square"/>
<line x1="40" y1="129" x2="860" y2="129" stroke="#efc03b" stroke-width="1" stroke-opacity="0.035" stroke-linecap="square"/>
<line x1="40" y1="133" x2="860" y2="133" stroke="#efc03b" stroke-width="1" stroke-opacity="0.035" stroke-linecap="square"/>
<line x1="40" y1="137" x2="860" y2="137" stroke="#efc03b" stroke-width="1" stroke-opacity="0.035" stroke-linecap="square"/>
<line x1="40" y1="141" x2="860" y2="141" stroke="#efc03b" stroke-width="1" stroke-opacity="0.035" stroke-linecap="square"/>
<line x1="40" y1="145" x2="860" y2="145" stroke="#efc03b" stroke-width="1" stroke-opacity="0.035" stroke-linecap="square"/>
<line x1="40" y1="149" x2="860" y2="149" stroke="#efc03b" stroke-width="1" stroke-opacity="0.035" stroke-linecap="square"/>
<line x1="40" y1="153" x2="860" y2="153" stroke="#efc03b" stroke-width="1" stroke-opacity="0.035" stroke-linecap="square"/>
<line x1="40" y1="157" x2="860" y2="157" stroke="#efc03b" stroke-width="1" stroke-opacity="0.035" stroke-linecap="square"/>
<line x1="40" y1="161" x2="860" y2="161" stroke="#efc03b" stroke-width="1" stroke-opacity="0.035" stroke-linecap="square"/>
<line x1="40" y1="165" x2="860" y2="165" stroke="#efc03b" stroke-width="1" stroke-opacity="0.035" stroke-linecap="square"/>
<line x1="40" y1="169" x2="860" y2="169" stroke="#efc03b" stroke-width="1" stroke-opacity="0.035" stroke-linecap="square"/>
<line x1="40" y1="173" x2="860" y2="173" stroke="#efc03b" stroke-width="1" stroke-opacity="0.035" stroke-linecap="square"/>
<line x1="40" y1="177" x2="860" y2="177" stroke="#efc03b" stroke-width="1" stroke-opacity="0.035" stroke-linecap="square"/>
<line x1="40" y1="181" x2="860" y2="181" stroke="#efc03b" stroke-width="1" stroke-opacity="0.035" stroke-linecap="square"/>
<line x1="40" y1="185" x2="860" y2="185" stroke="#efc03b" stroke-width="1" stroke-opacity="0.035" stroke-linecap="square"/>
<line x1="40" y1="189" x2="860" y2="189" stroke="#efc03b" stroke-width="1" stroke-opacity="0.035" stroke-linecap="square"/>
<line x1="40" y1="193" x2="860" y2="193" stroke="#efc03b" stroke-width="1" stroke-opacity="0.035" stroke-linecap="square"/>
<line x1="40" y1="197" x2="860" y2="197" stroke="#efc03b" stroke-width="1" stroke-opacity="0.035" stroke-linecap="square"/>
<line x1="40" y1="201" x2="860" y2="201" stroke="#efc03b" stroke-width="1" stroke-opacity="0.035" stroke-linecap="square"/>
<line x1="40" y1="205" x2="860" y2="205" stroke="#efc03b" stroke-width="1" stroke-opacity="0.035" stroke-linecap="square"/>
<line x1="40" y1="209" x2="860" y2="209" stroke="#efc03b" stroke-width="1" stroke-opacity="0.035" stroke-linecap="square"/>
<line x1="40" y1="213" x2="860" y2="213" stroke="#efc03b" stroke-width="1" stroke-opacity="0.035" stroke-linecap="square"/>
<line x1="40" y1="217" x2="860" y2="217" stroke="#efc03b" stroke-width="1" stroke-opacity="0.035" stroke-linecap="square"/>
<line x1="40" y1="221" x2="860" y2="221" stroke="#efc03b" stroke-width="1" stroke-opacity="0.035" stroke-linecap="square"/>
<line x1="40" y1="225" x2="860" y2="225" stroke="#efc03b" stroke-width="1" stroke-opacity="0.035" stroke-linecap="square"/>
<line x1="40" y1="229" x2="860" y2="229" stroke="#efc03b" stroke-width="1" stroke-opacity="0.035" stroke-linecap="square"/>
<line x1="40" y1="233" x2="860" y2="233" stroke="#efc03b" stroke-width="1" stroke-opacity="0.035" stroke-linecap="square"/>
<line x1="40" y1="237" x2="860" y2="237" stroke="#efc03b" stroke-width="1" stroke-opacity="0.035" stroke-linecap="square"/>
<line x1="40" y1="241" x2="860" y2="241" stroke="#efc03b" stroke-width="1" stroke-opacity="0.035" stroke-linecap="square"/>
<line x1="40" y1="245" x2="860" y2="245" stroke="#efc03b" stroke-width="1" stroke-opacity="0.035" stroke-linecap="square"/>
<line x1="40" y1="249" x2="860" y2="249" stroke="#efc03b" stroke-width="1" stroke-opacity="0.035" stroke-linecap="square"/>
<line x1="40" y1="253" x2="860" y2="253" stroke="#efc03b" stroke-width="1" stroke-opacity="0.035" stroke-linecap="square"/>
<line x1="40" y1="257" x2="860" y2="257" stroke="#efc03b" stroke-width="1" stroke-opacity="0.035" stroke-linecap="square"/>
<line x1="40" y1="261" x2="860" y2="261" stroke="#efc03b" stroke-width="1" stroke-opacity="0.035" stroke-linecap="square"/>
<line x1="40" y1="265" x2="860" y2="265" stroke="#efc03b" stroke-width="1" stroke-opacity="0.035" stroke-linecap="square"/>
<line x1="40" y1="269" x2="860" y2="269" stroke="#efc03b" stroke-width="1" stroke-opacity="0.035" stroke-linecap="square"/>
<line x1="40" y1="273" x2="860" y2="273" stroke="#efc03b" stroke-width="1" stroke-opacity="0.035" stroke-linecap="square"/>
<line x1="40" y1="277" x2="860" y2="277" stroke="#efc03b" stroke-width="1" stroke-opacity="0.035" stroke-linecap="square"/>
<line x1="40" y1="281" x2="860" y2="281" stroke="#efc03b" stroke-width="1" stroke-opacity="0.035" stroke-linecap="square"/>
<line x1="40" y1="285" x2="860" y2="285" stroke="#efc03b" stroke-width="1" stroke-opacity="0.035" stroke-linecap="square"/>
<line x1="40" y1="289" x2="860" y2="289" stroke="#efc03b" stroke-width="1" stroke-opacity="0.035" stroke-linecap="square"/>
<line x1="40" y1="293" x2="860" y2="293" stroke="#efc03b" stroke-width="1" stroke-opacity="0.035" stroke-linecap="square"/>
<line x1="40" y1="297" x2="860" y2="297" stroke="#efc03b" stroke-width="1" stroke-opacity="0.035" stroke-linecap="square"/>
<line x1="40" y1="301" x2="860" y2="301" stroke="#efc03b" stroke-width="1" stroke-opacity="0.035" stroke-linecap="square"/>
<line x1="40" y1="305" x2="860" y2="305" stroke="#efc03b" stroke-width="1" stroke-opacity="0.035" stroke-linecap="square"/>
<line x1="40" y1="309" x2="860" y2="309" stroke="#efc03b" stroke-width="1" stroke-opacity="0.035" stroke-linecap="square"/>
<line x1="40" y1="313" x2="860" y2="313" stroke="#efc03b" stroke-width="1" stroke-opacity="0.035" stroke-linecap="square"/>
<line x1="40" y1="317" x2="860" y2="317" stroke="#efc03b" stroke-width="1" stroke-opacity="0.035" stroke-linecap="square"/>
<line x1="40" y1="321" x2="860" y2="321" stroke="#efc03b" stroke-width="1" stroke-opacity="0.035" stroke-linecap="square"/>
<line x1="40" y1="325" x2="860" y2="325" stroke="#efc03b" stroke-width="1" stroke-opacity="0.035" stroke-linecap="square"/>
<line x1="40" y1="329" x2="860" y2="329" stroke="#efc03b" stroke-width="1" stroke-opacity="0.035" stroke-linecap="square"/>
<line x1="40" y1="333" x2="860" y2="333" stroke="#efc03b" stroke-width="1" stroke-opacity="0.035" stroke-linecap="square"/>
<line x1="40" y1="337" x2="860" y2="337" stroke="#efc03b" stroke-width="1" stroke-opacity="0.035" stroke-linecap="square"/>
<line x1="40" y1="341" x2="860" y2="341" stroke="#efc03b" stroke-width="1" stroke-opacity="0.035" stroke-linecap="square"/>
<line x1="40" y1="345" x2="860" y2="345" stroke="#efc03b" stroke-width="1" stroke-opacity="0.035" stroke-linecap="square"/>
<line x1="40" y1="349" x2="860" y2="349" stroke="#efc03b" stroke-width="1" stroke-opacity="0.035" stroke-linecap="square"/>
<line x1="40" y1="353" x2="860" y2="353" stroke="#efc03b" stroke-width="1" stroke-opacity="0.035" stroke-linecap="square"/>
<rect x="90" y="104" width="200" height="18" rx="3" fill="#ff5a4d" fill-opacity="0.1" stroke="#ff5a4d" stroke-width="1" stroke-opacity="0.28"/>
<text x="102" y="117" font-family="ui-monospace, SFMono-Regular, Menlo, monospace" font-size="10.5" fill="#ff5a4d" font-weight="400" text-anchor="start" letter-spacing="0.6" fill-opacity="1.0" xml:space="preserve">0.68</text>
<rect x="90" y="128" width="200" height="18" rx="3" fill="#ff5a4d" fill-opacity="0.1" stroke="#ff5a4d" stroke-width="1" stroke-opacity="0.28"/>
<text x="102" y="141" font-family="ui-monospace, SFMono-Regular, Menlo, monospace" font-size="10.5" fill="#ff5a4d" font-weight="400" text-anchor="start" letter-spacing="0.6" fill-opacity="1.0" xml:space="preserve">0.66</text>
<rect x="90" y="152" width="200" height="18" rx="3" fill="#ff5a4d" fill-opacity="0.1" stroke="#ff5a4d" stroke-width="1" stroke-opacity="0.28"/>
<text x="102" y="165" font-family="ui-monospace, SFMono-Regular, Menlo, monospace" font-size="10.5" fill="#ff5a4d" font-weight="400" text-anchor="start" letter-spacing="0.6" fill-opacity="1.0" xml:space="preserve">0.64</text>
<text x="304" y="117" font-family="ui-monospace, SFMono-Regular, Menlo, monospace" font-size="9.5" fill="#8a8a8a" font-weight="400" text-anchor="start" letter-spacing="0.4" fill-opacity="1.0" xml:space="preserve">what sellers want</text>
<line x1="80" y1="186" x2="300" y2="186" stroke="#efc03b" stroke-width="1.5" stroke-opacity="0.7" stroke-linecap="square"/>
<text x="304" y="190" font-family="ui-monospace, SFMono-Regular, Menlo, monospace" font-size="9.5" fill="#efc03b" font-weight="400" text-anchor="start" letter-spacing="0.4" fill-opacity="1.0" xml:space="preserve">the market now</text>
<rect x="90" y="200" width="200" height="18" rx="3" fill="#34d399" fill-opacity="0.1" stroke="#34d399" stroke-width="1" stroke-opacity="0.28"/>
<text x="102" y="213" font-family="ui-monospace, SFMono-Regular, Menlo, monospace" font-size="10.5" fill="#34d399" font-weight="400" text-anchor="start" letter-spacing="0.6" fill-opacity="1.0" xml:space="preserve">0.60</text>
<rect x="90" y="224" width="200" height="18" rx="3" fill="#34d399" fill-opacity="0.1" stroke="#34d399" stroke-width="1" stroke-opacity="0.28"/>
<text x="102" y="237" font-family="ui-monospace, SFMono-Regular, Menlo, monospace" font-size="10.5" fill="#34d399" font-weight="400" text-anchor="start" letter-spacing="0.6" fill-opacity="1.0" xml:space="preserve">0.58</text>
<text x="304" y="213" font-family="ui-monospace, SFMono-Regular, Menlo, monospace" font-size="9.5" fill="#8a8a8a" font-weight="400" text-anchor="start" letter-spacing="0.4" fill-opacity="1.0" xml:space="preserve">what buyers offer</text>
<rect x="90" y="272" width="200" height="22" rx="3" fill="#ffc016" fill-opacity="0.16" stroke="#ffc016" stroke-width="1.25" stroke-opacity="0.7"/>
<text x="102" y="287" font-family="ui-monospace, SFMono-Regular, Menlo, monospace" font-size="11" fill="#ffc016" font-weight="700" text-anchor="start" letter-spacing="0.6" fill-opacity="1.0" xml:space="preserve">0.40  ← YOUR PIN</text>
<path d="M 190.0 224 L 190.0 268" fill="none" stroke="#ffc016" stroke-width="1.25" stroke-opacity="0.45" stroke-linecap="square" stroke-linejoin="round" stroke-dasharray="4 3"/>
<text x="200.0" y="252" font-family="ui-monospace, SFMono-Regular, Menlo, monospace" font-size="9" fill="#8a8a8a" font-weight="400" text-anchor="start" letter-spacing="0.4" fill-opacity="1.0" xml:space="preserve">how far it still has to travel</text>
<rect x="500" y="150" width="320" height="56" rx="7" fill="#ffffff" fill-opacity="0.045" stroke="#34d399" stroke-width="1" stroke-opacity="0.34"/>
<rect x="500" y="157" width="2.5" height="42" rx="1.5" fill="#34d399" fill-opacity="0.85"/>
<text x="516" y="172" font-family="ui-monospace, SFMono-Regular, Menlo, monospace" font-size="11.5" fill="#34d399" font-weight="700" text-anchor="start" letter-spacing="0.6" fill-opacity="1.0" xml:space="preserve">the market comes to you</text>
<text x="516" y="188" font-family="ui-monospace, SFMono-Regular, Menlo, monospace" font-size="10" fill="#8a8a8a" font-weight="400" text-anchor="start" letter-spacing="0.6" fill-opacity="1.0" xml:space="preserve">→ you are in the round, at your price</text>
<rect x="500" y="236" width="320" height="56" rx="7" fill="#ffffff" fill-opacity="0.045" stroke="#e9dbbf" stroke-width="1" stroke-opacity="0.34" stroke-dasharray="4 3"/>
<rect x="500" y="243" width="2.5" height="42" rx="1.5" fill="#e9dbbf" fill-opacity="0.85"/>
<text x="516" y="258" font-family="ui-monospace, SFMono-Regular, Menlo, monospace" font-size="11.5" fill="#f2f2f2" font-weight="700" text-anchor="start" letter-spacing="0.6" fill-opacity="1.0" xml:space="preserve">the window closes first</text>
<text x="516" y="274" font-family="ui-monospace, SFMono-Regular, Menlo, monospace" font-size="10" fill="#8a8a8a" font-weight="400" text-anchor="start" letter-spacing="0.6" fill-opacity="1.0" xml:space="preserve">→ nothing happens, your money comes back</text>
<path d="M 300 283 L 470 283 L 470 178 L 500 178" fill="none" stroke="#34d399" stroke-width="1.25" stroke-opacity="0.5" stroke-linecap="square" stroke-linejoin="round"/>
<path d="M 470 264 L 500 264" fill="none" stroke="#e9dbbf" stroke-width="1.25" stroke-opacity="0.4" stroke-linecap="square" stroke-linejoin="round" stroke-dasharray="4 3"/>
<rect x="498.25" y="176.25" width="3.5" height="3.5" rx="0.5" fill="#34d399" fill-opacity="0.9"/>
<rect x="498.25" y="262.25" width="3.5" height="3.5" rx="0.5" fill="#e9dbbf" fill-opacity="0.9"/>
<text x="38" y="378" font-family="ui-monospace, SFMono-Regular, Menlo, monospace" font-size="9.5" fill="#8a8a8a" font-weight="400" text-anchor="start" letter-spacing="1.2" fill-opacity="1.0" xml:space="preserve">PLAYING PIN IS PROVIDING LIQUIDITY — YOUR RESTING BID IS REAL DEPTH ANYONE CAN TRADE AGAINST.</text>
</svg>
